<svg width="64" height="75" viewBox="0 0 64 75" fill="none" xmlns="http://www.w3.org/2000/svg">
<path d="M32 23.9604V37.9039L36.375 43.1327M54.0063 53.4264C58.7808 56.5079 61.1667 58.0521 61.1667 60.562C61.1667 63.0718 58.7808 64.616 54.0063 67.6975L50.7571 69.7925C47.0908 72.1594 45.2592 73.3411 44.3783 72.4836C42.22 70.3747 45.5829 64.9402 46.4083 63.016C47.2483 61.0639 47.2308 60.0251 46.4083 58.1079C45.5829 56.1837 42.22 50.7493 44.3783 48.6403C45.2592 47.7828 47.0908 48.9645 50.7571 51.3314L54.0063 53.4264Z" stroke="#757575" stroke-width="4.375" stroke-linecap="round" stroke-linejoin="round"/>
<path d="M34.9924 72.5813C34.0085 72.6998 33.011 72.7603 31.9999 72.7626C15.8912 72.7626 2.83325 57.1564 2.83325 37.904C2.83325 18.6516 15.8912 3.04541 31.9999 3.04541C48.1087 3.04541 61.1666 18.6516 61.1666 37.904C61.1627 40.2976 60.9683 42.6215 60.5833 44.8757" stroke="#757575" stroke-width="4.375" stroke-linecap="round" stroke-linejoin="round"/>
</svg>
