<svg width="63" height="79" viewBox="0 0 63 79" fill="none" xmlns="http://www.w3.org/2000/svg">
<path d="M27.6276 0.0746785C26.8693 0.0897113 26.045 0.253764 25.1636 0.598211C21.9773 1.84299 15.164 8.05218 13.7839 16.7869C20.0033 13.1158 25.3052 14.0061 28.4726 12.6934C35.6202 9.73372 33.8041 -0.0462372 27.6276 0.0746785ZM44.0633 8.96362C42.2961 8.96525 40.4859 9.26967 38.731 10.0045C44.5012 14.6058 46.5071 20.5385 49.0415 23.1611C55.4625 29.8061 62.4632 20.4552 56.1514 13.6885C54.28 11.6819 49.3651 8.9597 44.0633 8.96378V8.96362ZM34.452 15.2017C31.8456 15.1645 28.8465 15.8226 26.3532 17.8563C31.3721 19.8884 33.8335 23.792 36.1374 25.1279H36.1377C41.9746 28.5139 45.5934 19.9599 39.8168 16.4586C38.7463 15.8092 36.7521 15.2349 34.452 15.2017ZM22.1069 17.6981C21.1636 17.6795 20.1043 18.0328 19.0021 18.8916C16.8569 20.5629 12.8561 26.7544 13.2831 33.526C17.2653 29.3472 21.3246 28.7511 23.445 27.0346C27.7257 23.5694 25.8081 17.771 22.1069 17.6981ZM5.66597 19.8558C3.34558 19.8401 0.948899 21.7884 0.184367 26.1266C-0.506883 30.0472 0.584953 40.2043 6.22501 45.9993C6.67413 37.7264 9.9707 32.6838 10.6027 28.7495C11.5055 23.1421 8.64904 19.8758 5.66583 19.8557L5.66597 19.8558ZM44.2428 23.5492C45.2797 29.7603 43.682 34.2593 43.8657 37.3123C44.3306 45.0468 52.339 44.5158 51.9876 36.7855C51.8496 33.7294 49.3631 26.4926 44.2428 23.549V23.5492ZM31.167 28.023C26.0185 28.023 21.8176 33.044 21.8176 39.1966C21.8176 45.3493 26.019 50.3699 31.167 50.3699C36.3154 50.3699 40.5159 45.3493 40.5159 39.1966C40.5159 33.0438 36.3152 28.023 31.167 28.023ZM31.167 31.0753C32.0601 31.0723 32.9448 31.2804 33.7704 31.6874C34.596 32.0945 35.3461 32.6926 35.9775 33.4473C36.609 34.2021 37.1095 35.0985 37.4501 36.0852C37.7907 37.0719 37.9647 38.1293 37.9622 39.1966C37.9622 43.6999 34.9353 47.3176 31.1669 47.3176C30.2738 47.3207 29.3891 47.1127 28.5635 46.7057C27.7379 46.2987 26.9878 45.7006 26.3563 44.9459C25.7247 44.1912 25.2243 43.2948 24.8837 42.3081C24.5431 41.3214 24.369 40.264 24.3716 39.1966C24.369 38.1292 24.5431 37.0718 24.8837 36.0851C25.2243 35.0984 25.7248 34.2019 26.3563 33.4471C26.9878 32.6924 27.7379 32.0943 28.5635 31.6872C29.3891 31.2801 30.2739 31.0721 31.167 31.0752V31.0753ZM56.1192 32.4343C55.6699 40.7073 52.3736 45.7498 51.7414 49.6844C50.1366 59.6525 60.4125 62.2229 62.1601 52.307C62.851 48.3862 61.7592 38.2291 56.1192 32.4343ZM14.3024 35.583C12.2188 35.5945 10.177 37.6664 10.358 41.6524C10.4965 44.7083 12.9827 51.9449 18.1031 54.8887C17.0661 48.6779 18.6637 44.1782 18.4801 41.1252C18.2548 37.3788 16.2598 35.5719 14.3024 35.583ZM49.0627 44.9115C45.0803 49.0905 41.0209 49.6866 38.9008 51.4031C33.5287 55.7516 37.9178 63.7744 43.3436 59.5459C45.4887 57.8747 49.4894 51.6836 49.0625 44.9119L49.0627 44.9115ZM23.6617 52.5325C19.4694 52.4737 17.6546 59.025 22.5287 61.9794C24.8125 63.3644 31.2992 64.4092 35.9922 60.5816C30.9733 58.5495 28.5118 54.6459 26.208 53.3099H26.2077C25.2958 52.7809 24.438 52.5436 23.6617 52.5325ZM8.87148 52.9972C4.33173 52.8688 1.36056 59.5642 6.19288 64.745C8.688 67.4206 16.5938 71.3692 23.613 68.4288C17.843 63.8275 15.8369 57.8949 13.3025 55.2727C11.7977 53.7152 10.2612 53.0364 8.87148 52.9972ZM48.5602 61.6468C42.3412 65.3175 37.039 64.4272 33.8717 65.7399H33.8713C25.8459 69.063 29.1212 80.9843 37.1803 77.8351C40.3666 76.5906 47.1799 70.3811 48.5601 61.6466L48.5602 61.6468Z" fill="#757575"/>
</svg>
