<svg width="178" height="48" viewBox="0 0 178 48" fill="none" xmlns="http://www.w3.org/2000/svg">
<mask id="mask0_3352_1205" style="mask-type:luminance" maskUnits="userSpaceOnUse" x="0" y="0" width="178" height="48">
<path d="M178 0H0V47.6862H178V0Z" fill="white"/>
</mask>
<g mask="url(#mask0_3352_1205)">
<path fill-rule="evenodd" clip-rule="evenodd" d="M0 0.000488281H49.2098V47.6862H0V0.000488281ZM39.8969 23.8359L9.31278 23.8439C9.55453 23.6143 10.1964 23.0023 11.0885 22.1519L11.0946 22.1461L11.096 22.1447L11.0966 22.1441L11.0981 22.1428C15.2037 18.2286 24.5748 9.29432 24.6667 9.29432L39.8969 9.29088V23.8359ZM24.6171 38.3969C24.5913 38.0097 24.5991 37.5676 24.6066 37.1416C24.6101 36.9443 24.6135 36.7506 24.6135 36.5674C24.6135 36.1998 24.6147 35.4871 24.6162 34.5788V34.5753C24.6221 30.8706 24.6332 23.9193 24.5935 23.8588L22.7031 25.6746C22.6093 25.7714 22.5186 25.8528 22.429 25.9332C22.3621 25.9932 22.2958 26.0528 22.2293 26.1177L18.5394 29.634C18.5275 29.6455 18.5143 29.6561 18.5011 29.6666C18.4934 29.6728 18.4855 29.6791 18.4781 29.6854L17.4504 30.6607C17.3249 30.8016 17.0751 31.0304 16.8485 31.2377C16.7135 31.3614 16.5865 31.4777 16.4993 31.563L14.8353 33.1561C14.7896 33.1973 14.7498 33.2364 14.7098 33.2755C14.6735 33.3111 14.637 33.347 14.596 33.3845C14.5585 33.4198 14.5219 33.4524 14.4855 33.4848C14.4408 33.5246 14.3964 33.5642 14.3509 33.6083L13.6355 34.297C13.4728 34.4546 13.3361 34.5859 13.1535 34.7504L12.6868 35.2003C12.5241 35.3477 12.3591 35.4995 12.2024 35.6526L11.0121 36.7843C10.815 36.9888 10.6278 37.1613 10.4418 37.3328C10.313 37.4516 10.1846 37.5699 10.0539 37.698L9.58015 38.1594C9.5118 38.2187 9.39159 38.325 9.34444 38.3889L24.6171 38.3969ZM39.8968 38.3935L24.6324 38.3718L39.8768 23.8588L39.8968 38.3935Z" fill="#F23846"/>
<path d="M69.3306 32.83L65.6441 40.5457H60.3359L76.5549 8.49315L92.1846 40.5457H86.779L83.3386 32.83H69.3306ZM76.457 19.2569L71.3953 28.3064H81.3234L76.457 19.2569ZM103.489 40.5457H98.5254V13.3023H91.0051V8.77752H111.008V13.3023H103.488V40.5457H103.489ZM120.396 40.5457H115.433V8.77869H120.396V40.5457ZM149.493 40.5457H143.447L134.109 27.5435H133.224V40.5457H128.26V8.77869H134.059C136.189 8.77869 137.901 8.92144 139.195 9.20694C140.49 9.49245 141.661 9.96866 142.71 10.6356C143.922 11.4293 144.881 12.4926 145.585 13.8265C146.29 15.1604 146.643 16.5891 146.643 18.1125C146.643 20.3669 145.979 22.3038 144.652 23.9232C143.325 25.5427 141.564 26.5751 139.369 27.0193L149.493 40.5457ZM134.798 23.3522C137.026 23.3522 138.681 22.9868 139.762 22.257C140.417 21.8128 140.925 21.2246 141.286 20.4949C141.646 19.7651 141.827 18.9862 141.827 18.1605C141.827 17.3988 141.655 16.6839 141.311 16.0169C140.967 15.35 140.5 14.8098 139.91 14.3975C139.32 14.0161 138.64 13.7385 137.869 13.5638C137.1 13.3891 136.141 13.3023 134.994 13.3023H133.225V23.3522H134.798ZM178.001 16.1608C176.428 14.9228 174.97 14.0332 173.626 13.4942C172.283 12.9539 170.775 12.6844 169.104 12.6844C167.433 12.6844 165.868 12.9939 164.41 13.6129C162.952 14.2319 161.682 15.0896 160.601 16.1848C159.519 17.28 158.668 18.5659 158.045 20.0426C157.422 21.5193 157.112 23.0987 157.112 24.7809C157.112 26.4323 157.422 27.9798 158.045 29.4245C158.667 30.8691 159.519 32.1311 160.601 33.2103C161.682 34.2895 162.952 35.1312 164.41 35.7342C165.868 36.3372 167.45 36.6387 169.152 36.6387C170.791 36.6387 172.265 36.3692 173.575 35.829C174.886 35.2888 176.361 34.3523 177.999 33.0196V38.7823C176.524 39.6079 175.075 40.2108 173.649 40.5925C172.224 40.9738 170.708 41.1634 169.102 41.1634C166.742 41.1634 164.538 40.7353 162.491 39.8776C160.443 39.0199 158.65 37.8538 157.109 36.3772C155.569 34.9005 154.357 33.1703 153.472 31.1855C152.587 29.2006 152.145 27.081 152.145 24.8266C152.145 22.5094 152.595 20.3418 153.497 18.325C154.398 16.3081 155.635 14.5471 157.208 13.0385C158.78 11.5298 160.615 10.3398 162.713 9.46618C164.809 8.5925 167.055 8.15625 169.446 8.15625C171.051 8.15625 172.509 8.339 173.821 8.70443C175.131 9.06989 176.524 9.66489 177.999 10.4906V16.1585L178.001 16.1608Z" fill="#0D0D0D"/>
</g>
</svg>
